<svg width="35" height="38" viewBox="0 0 35 38" fill="none" xmlns="http://www.w3.org/2000/svg">
<path d="M16.1572 2.5C14.9052 2.5 13.8937 3.47754 13.8937 4.6875V6C8.73016 7.01172 4.83982 11.4277 4.83982 16.7188V18.4551C4.83982 21.5586 3.74345 24.5732 1.74169 26.9932L0.687759 28.2715C0.277505 28.7637 0.199698 29.4404 0.482632 30.0078C0.765566 30.5752 1.35973 30.9375 2.01048 30.9375H30.3039C30.9546 30.9375 31.5488 30.5752 31.8317 30.0078C32.1147 29.4404 32.0369 28.7637 31.6266 28.2715L30.5727 27C28.5709 24.5732 27.4745 21.5586 27.4745 18.4551V16.7188C27.4745 11.4277 23.5842 7.01172 18.4207 6V4.6875C18.4207 3.47754 17.4092 2.5 16.1572 2.5ZM20.6841 33.125H16.1572H11.6302C11.6302 34.2871 12.1042 35.4014 12.953 36.2217C13.8018 37.042 14.9547 37.5 16.1572 37.5C17.3597 37.5 18.5126 37.042 19.3614 36.2217C20.2102 35.4014 20.6841 34.2871 20.6841 33.125Z" fill="#404040"/>
<circle cx="28.3057" cy="6.70007" r="5" fill="#FF6565" stroke="white" stroke-width="3"/>
</svg>
