<svg width="512" height="448" viewBox="0 0 512 448" fill="none" xmlns="http://www.w3.org/2000/svg">
<path d="M512 208C512 322.9 397.4 416 256 416C218.9 416 183.7 409.6 151.9 398.1C140 406.8 120.6 418.7 97.5999 428.7C73.5999 439.1 44.6999 448 15.9999 448C9.49987 448 3.69987 444.1 1.19987 438.1C-1.30013 432.1 0.0998697 425.3 4.59987 420.7L4.89987 420.4C5.19987 420.1 5.59987 419.7 6.19987 419C7.29987 417.8 8.99987 415.9 11.0999 413.3C15.1999 408.3 20.6999 400.9 26.2999 391.7C36.2999 375.1 45.7999 353.3 47.6999 328.8C17.6999 294.8 -0.000130055 253.1 -0.000130055 208C-0.000130055 93.1 114.6 0 256 0C397.4 0 512 93.1 512 208Z" fill="#777777"/>
<path d="M198.859 317H142.159C140.359 317 138.759 316.4 137.359 315.2C136.159 313.8 135.559 312.5 135.559 311.3C135.559 310.1 135.659 309.2 135.859 308.6L201.259 116.9C203.059 110.3 207.559 107 214.759 107H298.159C305.359 107 309.859 110.3 311.659 116.9L377.059 308.6C377.259 309.2 377.359 310.1 377.359 311.3C377.359 312.5 376.659 313.8 375.259 315.2C374.059 316.4 372.559 317 370.759 317H314.059C307.659 317 303.159 313.6 300.559 306.8L293.059 285.8H219.859L212.359 306.8C209.759 313.6 205.259 317 198.859 317ZM277.759 227.3L256.459 164.9L235.159 227.3H277.759Z" fill="white"/>
</svg>
