<svg width="66" height="87" viewBox="0 0 66 87" fill="none" xmlns="http://www.w3.org/2000/svg">
<g clip-path="url(#clip0_2006_278)">
<path d="M54.6667 78.8438C56.1562 78.8438 57.375 77.6203 57.375 76.125V27.1875H43.8333C40.8372 27.1875 38.4167 24.7576 38.4167 21.75V8.15625H11.3333C9.84375 8.15625 8.625 9.37969 8.625 10.875V76.125C8.625 77.6203 9.84375 78.8438 11.3333 78.8438H54.6667ZM0.5 10.875C0.5 4.87676 5.35807 0 11.3333 0H39.3477C42.2253 0 44.9844 1.13848 47.0156 3.17754L62.3346 18.5555C64.3659 20.5945 65.5 23.3643 65.5 26.2529V76.125C65.5 82.1232 60.6419 87 54.6667 87H11.3333C5.35807 87 0.5 82.1232 0.5 76.125V10.875Z" fill="#404040"/>
<path d="M20.3129 41.8C20.3129 41.4 20.3529 41.04 20.4329 40.72C20.5395 40.3733 20.7262 40.08 20.9929 39.84C21.2595 39.5733 21.6329 39.3733 22.1129 39.24C22.5929 39.08 23.2062 39 23.9529 39H43.7929C44.5395 39 45.1529 39.08 45.6329 39.24C46.1129 39.3733 46.4862 39.5733 46.7529 39.84C47.0195 40.08 47.1929 40.3733 47.2729 40.72C47.3795 41.04 47.4329 41.4 47.4329 41.8C47.4329 42.12 47.3795 42.4533 47.2729 42.8C47.1929 43.12 47.0195 43.4133 46.7529 43.68C46.4862 43.92 46.1129 44.12 45.6329 44.28C45.1529 44.44 44.5395 44.52 43.7929 44.52H37.5929C37.5929 45.5333 37.8329 46.5067 38.3129 47.44C38.7929 48.3733 39.4462 49.24 40.2729 50.04C41.0995 50.8133 42.0462 51.5067 43.1129 52.12C44.2062 52.7333 45.3529 53.2133 46.5529 53.56C47.5662 53.8533 48.3262 54.32 48.8329 54.96C49.3662 55.6 49.5262 56.4133 49.3129 57.4C49.0729 58.44 48.4595 59.1333 47.4729 59.48C47.1795 59.5867 46.8729 59.6533 46.5529 59.68C46.2329 59.7067 45.9129 59.68 45.5929 59.6C43.1929 59.04 41.0195 58.1067 39.0729 56.8C37.1529 55.4667 35.4862 53.9333 34.0729 52.2C32.6329 53.88 30.9795 55.36 29.1129 56.64C27.2729 57.8933 25.3529 58.7867 23.3529 59.32C22.9795 59.4267 22.5662 59.5067 22.1129 59.56C21.6862 59.5867 21.2595 59.56 20.8329 59.48C20.3795 59.3733 19.9529 59.1733 19.5529 58.88C19.1529 58.5867 18.8595 58.1333 18.6729 57.52C18.3795 56.56 18.4595 55.7467 18.9129 55.08C19.3662 54.3867 20.0862 53.8533 21.0729 53.48C22.2195 53.0533 23.3662 52.5333 24.5129 51.92C25.6862 51.3067 26.7262 50.6267 27.6329 49.88C28.5395 49.1067 29.2729 48.28 29.8329 47.4C30.4195 46.4933 30.7129 45.5333 30.7129 44.52H23.9529C23.2062 44.52 22.5929 44.44 22.1129 44.28C21.6329 44.12 21.2595 43.92 20.9929 43.68C20.7262 43.4133 20.5395 43.12 20.4329 42.8C20.3529 42.4533 20.3129 42.12 20.3129 41.8Z" fill="#404040"/>
</g>
<defs>
<clipPath id="clip0_2006_278">
<rect width="65" height="87" fill="white" transform="translate(0.5)"/>
</clipPath>
</defs>
</svg>
