<svg width="23" height="24" viewBox="0 0 23 24" fill="none" xmlns="http://www.w3.org/2000/svg">
<path d="M22.0157 11.6854C22.0157 14.1366 21.5344 16.2397 20.5717 17.9947C19.609 19.7497 18.2946 21.0864 16.6284 22.0046C14.9623 22.9155 13.0887 23.3709 11.0079 23.3709C8.91219 23.3709 7.03126 22.9155 5.36508 22.0046C3.70631 21.0864 2.39559 19.7497 1.43291 17.9947C0.477641 16.2323 0 14.1292 0 11.6854C0 9.23432 0.477641 7.12753 1.43291 5.36509C2.39559 3.60264 3.70631 2.2697 5.36508 1.36627C7.03126 0.455422 8.91219 0 11.0079 0C13.0887 0 14.9623 0.455422 16.6284 1.36627C18.2946 2.2697 19.609 3.60264 20.5717 5.36509C21.5344 7.12753 22.0157 9.23432 22.0157 11.6854Z" fill="black"/>
<path d="M12.7514 6.3377V15.1651C12.7514 16.0081 12.5604 16.6992 12.1782 17.2385C11.8012 17.7778 11.377 18.0474 10.9058 18.0474C10.8639 18.0474 10.8246 18.0317 10.788 18.0003C10.7566 17.9689 10.7409 17.927 10.7409 17.8746C10.7409 17.8432 10.7854 17.7516 10.8744 17.5998C11.0733 17.2594 11.1728 16.8039 11.1728 16.2332V7.17018C11.1728 6.95028 11.2253 6.77489 11.33 6.64399C11.4661 6.48169 11.6519 6.33509 11.8875 6.20419C12.1283 6.06806 12.3248 6 12.4766 6C12.6598 6 12.7514 6.11257 12.7514 6.3377ZM9.20946 18.2752C8.78536 18.2752 8.42672 18.1102 8.13351 17.7804C8.04451 17.6757 8 17.5474 8 17.3956C8 17.2228 8.09163 17.0264 8.27488 16.8065C8.45813 16.5866 8.63876 16.4767 8.81678 16.4767C8.90055 16.4767 8.966 16.495 9.01312 16.5317C9.06024 16.5683 9.14401 16.6521 9.26445 16.783C9.38485 16.9191 9.51835 16.9872 9.66495 16.9872C9.78015 16.9872 9.91365 16.9531 10.0654 16.8851C10.2173 16.817 10.3221 16.783 10.3797 16.783C10.5106 16.783 10.5759 16.8589 10.5759 17.0107C10.5759 17.0893 10.5471 17.194 10.4895 17.3249C10.4372 17.4558 10.3587 17.5945 10.254 17.7411C10.1493 17.8877 10.0026 18.0134 9.81415 18.1181C9.63095 18.2228 9.42935 18.2752 9.20946 18.2752Z" fill="white"/>
</svg>
