<svg width="24" height="24" viewBox="0 0 24 24" fill="none" xmlns="http://www.w3.org/2000/svg">
<g clip-path="url(#clip0_4004_616)">
<path d="M22.5529 11.6854C22.5529 14.1366 22.0716 16.2397 21.1089 17.9947C20.1462 19.7497 18.8319 21.0864 17.1656 22.0046C15.4994 22.9155 13.6259 23.3709 11.5451 23.3709C9.44942 23.3709 7.56849 22.9155 5.90232 22.0046C4.24355 21.0864 2.93282 19.7497 1.97014 17.9947C1.01487 16.2323 0.537231 14.1292 0.537231 11.6854C0.537231 9.23432 1.01487 7.12753 1.97014 5.36509C2.93282 3.60264 4.24355 2.2697 5.90232 1.36627C7.56849 0.455422 9.44942 0 11.5451 0C13.6259 0 15.4994 0.455422 17.1656 1.36627C18.8319 2.2697 20.1462 3.60264 21.1089 5.36509C22.0716 7.12753 22.5529 9.23432 22.5529 11.6854Z" fill="black"/>
<path d="M13.5506 5.70489V14.5323C13.5506 15.3753 13.3595 16.0664 12.9773 16.6057C12.6003 17.145 12.1762 17.4146 11.705 17.4146C11.6631 17.4146 11.6238 17.3989 11.5872 17.3675C11.5558 17.3361 11.5401 17.2942 11.5401 17.2418C11.5401 17.2104 11.5846 17.1188 11.6736 16.967C11.8725 16.6266 11.972 16.1711 11.972 15.6004V6.53737C11.972 6.31747 12.0244 6.14208 12.1291 6.01118C12.2652 5.84888 12.4511 5.70228 12.6867 5.57138C12.9275 5.43525 13.1239 5.36719 13.2757 5.36719C13.4589 5.36719 13.5506 5.47976 13.5506 5.70489ZM10.0086 17.6424C9.58446 17.6424 9.22582 17.4774 8.93261 17.1476C8.84361 17.0429 8.7991 16.9146 8.7991 16.7628C8.7991 16.59 8.89073 16.3936 9.07398 16.1737C9.25723 15.9538 9.43786 15.8439 9.61588 15.8439C9.69965 15.8439 9.7651 15.8622 9.81222 15.8989C9.85934 15.9355 9.94311 16.0193 10.0636 16.1502C10.184 16.2863 10.3175 16.3544 10.4641 16.3544C10.5793 16.3544 10.7128 16.3203 10.8646 16.2523C11.0165 16.1842 11.1212 16.1502 11.1788 16.1502C11.3097 16.1502 11.3751 16.2261 11.3751 16.3779C11.3751 16.4565 11.3463 16.5612 11.2887 16.6921C11.2364 16.823 11.1578 16.9617 11.0531 17.1083C10.9484 17.2549 10.8018 17.3806 10.6133 17.4853C10.4301 17.59 10.2285 17.6424 10.0086 17.6424Z" fill="white"/>
</g>
<defs>
<clipPath id="clip0_4004_616">
<rect width="23" height="24" fill="white" transform="translate(0.0500488)"/>
</clipPath>
</defs>
</svg>
