<svg width="512" height="449" viewBox="0 0 512 449" fill="none" xmlns="http://www.w3.org/2000/svg">
<path d="M313.4 1.90093C339.4 7.10093 356.3 32.4009 351.1 58.4009L348.8 69.8009C343.5 96.5009 333.7 121.901 320 145.001H464C490.5 145.001 512 166.501 512 193.001C512 211.501 501.5 227.601 486.1 235.601C497 244.401 504 257.901 504 273.001C504 296.401 487.2 315.901 465.1 320.101C469.5 327.401 472 335.901 472 345.001C472 366.301 458.1 384.401 438.9 390.601C439.6 393.901 440 397.401 440 401.001C440 427.501 418.5 449.001 392 449.001H294.5C275.5 449.001 257 443.401 241.2 432.901L202.7 407.201C176 389.401 160 359.401 160 327.301V289.001V241.001V216.101C160 186.901 173.3 159.401 196 141.101L203.4 135.201C229.9 114.001 248 84.2009 254.6 51.0009L256.9 39.6009C262.1 13.6009 287.4 -3.29907 313.4 1.90093ZM32 161.001H96C113.7 161.001 128 175.301 128 193.001V417.001C128 434.701 113.7 449.001 96 449.001H32C14.3 449.001 0 434.701 0 417.001V193.001C0 175.301 14.3 161.001 32 161.001Z" fill="#777777"/>
</svg>
