<svg width="156" height="24" viewBox="0 0 156 24" fill="none" xmlns="http://www.w3.org/2000/svg">
<path d="M16.362 0.625572V16.2543C16.3546 17.7131 15.9917 19.0053 15.2734 20.1309C14.5551 21.2491 13.5517 22.1229 12.2632 22.7524C10.9747 23.3744 9.50843 23.6854 7.86447 23.6854C6.36121 23.6854 5.01716 23.4263 3.83232 22.9079C2.64749 22.3821 1.71073 21.575 1.02204 20.4864C0.333353 19.3904 -0.00728705 18.0167 0.000118168 16.3654H5.97614C5.99835 16.9356 6.09832 17.4206 6.27605 17.8205C6.46118 18.213 6.71666 18.5129 7.04249 18.7202C7.37572 18.9202 7.7756 19.0202 8.24213 19.0202C8.71607 19.0202 9.11965 18.9165 9.45289 18.7091C9.78612 18.5018 10.0342 18.1945 10.1971 17.7872C10.3674 17.3725 10.4563 16.8615 10.4637 16.2543V0.625572H16.362Z" fill="black"/>
<path d="M40.3226 12C40.3226 14.4511 39.8412 16.5542 38.8785 18.3092C37.9159 20.0643 36.6014 21.4009 34.9353 22.3192C33.2691 23.23 31.3956 23.6854 29.3147 23.6854C27.219 23.6854 25.3381 23.23 23.6719 22.3192C22.0131 21.4009 20.7024 20.0643 19.7397 18.3092C18.7845 16.5468 18.3068 14.4437 18.3068 12C18.3068 9.54887 18.7845 7.44208 19.7397 5.67964C20.7024 3.9172 22.0131 2.58426 23.6719 1.68082C25.3381 0.769974 27.219 0.314552 29.3147 0.314552C31.3956 0.314552 33.2691 0.769974 34.9353 1.68082C36.6014 2.58426 37.9159 3.9172 38.8785 5.67964C39.8412 7.44208 40.3226 9.54887 40.3226 12ZM34.1688 12C34.1688 10.6078 33.9837 9.43039 33.6134 8.46771C33.2432 7.49762 32.6952 6.76821 31.9695 6.27946C31.2437 5.78331 30.3588 5.53524 29.3147 5.53524C28.2706 5.53524 27.3893 5.78331 26.671 6.27946C25.9527 6.76821 25.4047 7.49762 25.0271 8.46771C24.6494 9.43039 24.4606 10.6078 24.4606 12C24.4606 13.3922 24.6494 14.5696 25.0271 15.5323C25.4047 16.4876 25.9527 17.217 26.671 17.7205C27.3893 18.2167 28.2706 18.4648 29.3147 18.4648C30.3588 18.4648 31.2437 18.2167 31.9695 17.7205C32.6952 17.217 33.2432 16.4876 33.6134 15.5323C33.9837 14.5696 34.1688 13.3922 34.1688 12Z" fill="black"/>
<path d="M42.261 0.625572H52.0248C53.7206 0.625572 55.1572 0.858837 56.3346 1.32537C57.5195 1.78449 58.4118 2.44356 59.0116 3.30256C59.6188 4.16157 59.9225 5.17238 59.9225 6.335C59.9225 7.17179 59.741 7.93453 59.3782 8.62322C59.0227 9.3045 58.5118 9.8784 57.8453 10.3449C57.1862 10.8115 56.4235 11.1299 55.5571 11.3002V11.5224C56.5272 11.5594 57.4121 11.8075 58.2118 12.2666C59.0116 12.7183 59.6448 13.3515 60.1113 14.166C60.5778 14.9732 60.8111 15.9026 60.8111 16.9541C60.8111 18.1982 60.4927 19.3053 59.8558 20.2753C59.219 21.2454 58.2933 22.0045 57.0788 22.5524C55.8718 23.1004 54.4574 23.3744 52.8357 23.3744H42.261V0.625572ZM51.2806 18.5758C51.9989 18.5758 52.595 18.4833 53.0689 18.2981C53.5503 18.113 53.9057 17.8464 54.1353 17.4984C54.3722 17.1503 54.4907 16.7171 54.4907 16.1988C54.4907 15.6582 54.3685 15.1954 54.1242 14.8103C53.8798 14.4178 53.5206 14.1216 53.0467 13.9217C52.5728 13.7143 52.0137 13.6106 51.3694 13.6106H48.2481V18.5758H51.2806ZM50.9251 9.86729C51.4805 9.86729 51.9729 9.77843 52.4024 9.60071C52.8394 9.42298 53.1763 9.1638 53.4133 8.82316C53.6576 8.48252 53.7798 8.07153 53.7798 7.59019C53.7798 7.11625 53.6613 6.71267 53.4244 6.37943C53.1874 6.03879 52.8616 5.77961 52.4469 5.60188C52.0322 5.42416 51.5545 5.3353 51.014 5.3353H48.2481V9.86729H50.9251Z" fill="black"/>
<path d="M62.1237 0.625572H68.1108V18.5425H77.3858V23.3744H62.1237V0.625572Z" fill="black"/>
<path d="M99.9734 12C99.9734 14.4511 99.492 16.5542 98.5294 18.3092C97.5667 20.0643 96.2523 21.4009 94.5861 22.3192C92.9199 23.23 91.0464 23.6854 88.9655 23.6854C86.8698 23.6854 84.9889 23.23 83.3227 22.3192C81.664 21.4009 80.3532 20.0643 79.3906 18.3092C78.4353 16.5468 77.9576 14.4437 77.9576 12C77.9576 9.54887 78.4353 7.44208 79.3906 5.67964C80.3532 3.9172 81.664 2.58426 83.3227 1.68082C84.9889 0.769974 86.8698 0.314552 88.9655 0.314552C91.0464 0.314552 92.9199 0.769974 94.5861 1.68082C96.2523 2.58426 97.5667 3.9172 98.5294 5.67964C99.492 7.44208 99.9734 9.54887 99.9734 12ZM93.8196 12C93.8196 10.6078 93.6345 9.43039 93.2643 8.46771C92.894 7.49762 92.346 6.76821 91.6203 6.27946C90.8946 5.78331 90.0097 5.53524 88.9655 5.53524C87.9214 5.53524 87.0402 5.78331 86.3219 6.27946C85.6035 6.76821 85.0556 7.49762 84.6779 8.46771C84.3002 9.43039 84.1114 10.6078 84.1114 12C84.1114 13.3922 84.3002 14.5696 84.6779 15.5323C85.0556 16.4876 85.6035 17.217 86.3219 17.7205C87.0402 18.2167 87.9214 18.4648 88.9655 18.4648C90.0097 18.4648 90.8946 18.2167 91.6203 17.7205C92.346 17.217 92.894 16.4876 93.2643 15.5323C93.6345 14.5696 93.8196 13.3922 93.8196 12Z" fill="black"/>
<path d="M116.73 8.11226C116.596 7.56427 116.359 7.10144 116.019 6.72378C115.678 6.3387 115.249 6.0462 114.73 5.84626C114.212 5.63891 113.619 5.53524 112.953 5.53524C111.901 5.53524 111.002 5.79072 110.254 6.30168C109.506 6.80523 108.932 7.53835 108.532 8.50103C108.132 9.46371 107.932 10.6152 107.932 11.9556C107.932 13.3329 108.121 14.5067 108.499 15.4768C108.876 16.4394 109.439 17.18 110.187 17.6983C110.935 18.2093 111.846 18.4648 112.92 18.4648C113.868 18.4648 114.667 18.3204 115.319 18.0316C115.971 17.7428 116.459 17.3355 116.785 16.8097C117.111 16.2765 117.274 15.6471 117.274 14.9214L118.329 15.0324H113.042V10.7448H123.05V13.855C123.05 15.8766 122.617 17.628 121.75 19.109C120.891 20.5901 119.692 21.7231 118.151 22.508C116.619 23.293 114.86 23.6854 112.875 23.6854C110.683 23.6854 108.751 23.2115 107.077 22.2636C105.403 21.3158 104.1 19.968 103.167 18.2204C102.241 16.4653 101.779 14.4067 101.779 12.0444C101.779 9.61552 102.267 7.51613 103.245 5.74629C104.222 3.97644 105.544 2.62869 107.21 1.70303C108.884 0.777379 110.754 0.314552 112.82 0.314552C114.582 0.314552 116.189 0.647788 117.641 1.31426C119.099 1.97332 120.28 2.89527 121.184 4.08011C122.087 5.26495 122.621 6.60899 122.783 8.11226H116.73Z" fill="black"/>
<path d="M155.066 12C155.066 14.4511 154.584 16.5542 153.622 18.3092C152.659 20.0643 151.345 21.4009 149.678 22.3192C148.012 23.23 146.139 23.6854 144.058 23.6854C141.962 23.6854 140.081 23.23 138.415 22.3192C136.756 21.4009 135.446 20.0643 134.483 18.3092C133.528 16.5468 133.05 14.4437 133.05 12C133.05 9.54887 133.528 7.44208 134.483 5.67964C135.446 3.9172 136.756 2.58426 138.415 1.68082C140.081 0.769974 141.962 0.314552 144.058 0.314552C146.139 0.314552 148.012 0.769974 149.678 1.68082C151.345 2.58426 152.659 3.9172 153.622 5.67964C154.584 7.44208 155.066 9.54887 155.066 12Z" fill="black"/>
<path d="M145.801 6.65225V15.4796C145.801 16.3226 145.61 17.0137 145.228 17.553C144.851 18.0923 144.427 18.3619 143.956 18.3619C143.914 18.3619 143.875 18.3462 143.838 18.3148C143.807 18.2834 143.791 18.2415 143.791 18.1891C143.791 18.1577 143.835 18.0661 143.924 17.9143C144.123 17.5739 144.223 17.1184 144.223 16.5477V7.48473C144.223 7.26483 144.275 7.08944 144.38 6.95854C144.516 6.79624 144.702 6.64964 144.938 6.51874C145.178 6.38261 145.375 6.31455 145.527 6.31455C145.71 6.31455 145.801 6.42712 145.801 6.65225ZM142.26 18.5897C141.835 18.5897 141.477 18.4247 141.184 18.0949C141.095 17.9902 141.05 17.8619 141.05 17.7101C141.05 17.5373 141.142 17.3409 141.325 17.121C141.508 16.9011 141.689 16.7912 141.867 16.7912C141.951 16.7912 142.016 16.8095 142.063 16.8462C142.11 16.8828 142.194 16.9666 142.314 17.0975C142.435 17.2336 142.568 17.3017 142.715 17.3017C142.83 17.3017 142.964 17.2676 143.115 17.1996C143.267 17.1315 143.372 17.0975 143.43 17.0975C143.561 17.0975 143.626 17.1734 143.626 17.3252C143.626 17.4038 143.597 17.5085 143.54 17.6394C143.487 17.7703 143.409 17.909 143.304 18.0556C143.199 18.2022 143.053 18.3279 142.864 18.4326C142.681 18.5373 142.479 18.5897 142.26 18.5897Z" fill="white"/>
</svg>
