<svg width="157" height="24" viewBox="0 0 157 24" fill="none" xmlns="http://www.w3.org/2000/svg">
<path d="M16.362 0.625473V16.2542C16.3546 17.713 15.9917 19.0052 15.2734 20.1308C14.5551 21.249 13.5517 22.1228 12.2632 22.7523C10.9747 23.3743 9.50843 23.6853 7.86447 23.6853C6.36121 23.6853 5.01716 23.4262 3.83232 22.9078C2.64749 22.382 1.71073 21.5749 1.02204 20.4863C0.333353 19.3903 -0.00728705 18.0166 0.000118168 16.3653H5.97614C5.99835 16.9355 6.09832 17.4205 6.27605 17.8204C6.46118 18.2129 6.71666 18.5128 7.04249 18.7201C7.37572 18.9201 7.7756 19.0201 8.24213 19.0201C8.71607 19.0201 9.11965 18.9164 9.45289 18.709C9.78612 18.5017 10.0342 18.1944 10.1971 17.7871C10.3674 17.3724 10.4563 16.8614 10.4637 16.2542V0.625473H16.362Z" fill="black"/>
<path d="M40.3226 11.9999C40.3226 14.451 39.8412 16.5541 38.8785 18.3092C37.9159 20.0642 36.6014 21.4008 34.9353 22.3191C33.2691 23.2299 31.3956 23.6853 29.3147 23.6853C27.219 23.6853 25.3381 23.2299 23.6719 22.3191C22.0131 21.4008 20.7024 20.0642 19.7397 18.3092C18.7845 16.5467 18.3068 14.4436 18.3068 11.9999C18.3068 9.54877 18.7845 7.44198 19.7397 5.67954C20.7024 3.9171 22.0131 2.58416 23.6719 1.68072C25.3381 0.769875 27.219 0.314453 29.3147 0.314453C31.3956 0.314453 33.2691 0.769875 34.9353 1.68072C36.6014 2.58416 37.9159 3.9171 38.8785 5.67954C39.8412 7.44198 40.3226 9.54877 40.3226 11.9999ZM34.1688 11.9999C34.1688 10.6077 33.9837 9.43029 33.6134 8.46761C33.2432 7.49752 32.6952 6.76811 31.9695 6.27936C31.2437 5.78321 30.3588 5.53514 29.3147 5.53514C28.2705 5.53514 27.3893 5.78321 26.671 6.27936C25.9527 6.76811 25.4047 7.49752 25.0271 8.46761C24.6494 9.43029 24.4606 10.6077 24.4606 11.9999C24.4606 13.3921 24.6494 14.5695 25.0271 15.5322C25.4047 16.4875 25.9527 17.2169 26.671 17.7204C27.3893 18.2166 28.2705 18.4647 29.3147 18.4647C30.3588 18.4647 31.2437 18.2166 31.9695 17.7204C32.6952 17.2169 33.2432 16.4875 33.6134 15.5322C33.9837 14.5695 34.1688 13.3921 34.1688 11.9999Z" fill="black"/>
<path d="M42.261 0.625473H52.0248C53.7206 0.625473 55.1572 0.858738 56.3346 1.32527C57.5195 1.78439 58.4118 2.44346 59.0116 3.30246C59.6188 4.16147 59.9225 5.17228 59.9225 6.3349C59.9225 7.17169 59.741 7.93443 59.3782 8.62312C59.0227 9.3044 58.5118 9.8783 57.8453 10.3448C57.1862 10.8114 56.4235 11.1298 55.5571 11.3001V11.5223C56.5272 11.5593 57.4121 11.8074 58.2118 12.2665C59.0116 12.7182 59.6448 13.3514 60.1113 14.1659C60.5778 14.9731 60.8111 15.9025 60.8111 16.954C60.8111 18.1981 60.4927 19.3052 59.8558 20.2752C59.219 21.2453 58.2933 22.0044 57.0788 22.5523C55.8718 23.1003 54.4574 23.3743 52.8357 23.3743H42.261V0.625473ZM51.2806 18.5757C51.9989 18.5757 52.595 18.4832 53.0689 18.298C53.5503 18.1129 53.9057 17.8463 54.1353 17.4983C54.3722 17.1502 54.4907 16.717 54.4907 16.1987C54.4907 15.6581 54.3685 15.1953 54.1242 14.8102C53.8798 14.4177 53.5206 14.1215 53.0467 13.9216C52.5728 13.7142 52.0137 13.6105 51.3694 13.6105H48.2481V18.5757H51.2806ZM50.9251 9.86719C51.4805 9.86719 51.9729 9.77833 52.4024 9.60061C52.8394 9.42288 53.1763 9.1637 53.4133 8.82306C53.6576 8.48242 53.7798 8.07143 53.7798 7.59009C53.7798 7.11615 53.6613 6.71257 53.4244 6.37933C53.1874 6.03869 52.8616 5.77951 52.4469 5.60179C52.0322 5.42406 51.5545 5.3352 51.014 5.3352H48.2481V9.86719H50.9251Z" fill="black"/>
<path d="M62.1237 0.625473H68.1108V18.5424H77.3858V23.3743H62.1237V0.625473Z" fill="black"/>
<path d="M99.9734 11.9999C99.9734 14.451 99.492 16.5541 98.5294 18.3092C97.5667 20.0642 96.2523 21.4008 94.5861 22.3191C92.9199 23.2299 91.0464 23.6853 88.9655 23.6853C86.8698 23.6853 84.9889 23.2299 83.3227 22.3191C81.664 21.4008 80.3532 20.0642 79.3906 18.3092C78.4353 16.5467 77.9576 14.4436 77.9576 11.9999C77.9576 9.54877 78.4353 7.44198 79.3906 5.67954C80.3532 3.9171 81.664 2.58416 83.3227 1.68072C84.9889 0.769875 86.8698 0.314453 88.9655 0.314453C91.0464 0.314453 92.9199 0.769875 94.5861 1.68072C96.2523 2.58416 97.5667 3.9171 98.5294 5.67954C99.492 7.44198 99.9734 9.54877 99.9734 11.9999ZM93.8196 11.9999C93.8196 10.6077 93.6345 9.43029 93.2643 8.46761C92.894 7.49752 92.346 6.76811 91.6203 6.27936C90.8946 5.78321 90.0097 5.53514 88.9655 5.53514C87.9214 5.53514 87.0402 5.78321 86.3219 6.27936C85.6035 6.76811 85.0556 7.49752 84.6779 8.46761C84.3002 9.43029 84.1114 10.6077 84.1114 11.9999C84.1114 13.3921 84.3002 14.5695 84.6779 15.5322C85.0556 16.4875 85.6035 17.2169 86.3219 17.7204C87.0402 18.2166 87.9214 18.4647 88.9655 18.4647C90.0097 18.4647 90.8946 18.2166 91.6203 17.7204C92.346 17.2169 92.894 16.4875 93.2643 15.5322C93.6345 14.5695 93.8196 13.3921 93.8196 11.9999Z" fill="black"/>
<path d="M116.73 8.11216C116.596 7.56417 116.359 7.10134 116.019 6.72368C115.678 6.3386 115.249 6.0461 114.73 5.84616C114.212 5.63881 113.619 5.53514 112.953 5.53514C111.901 5.53514 111.002 5.79062 110.254 6.30158C109.506 6.80513 108.932 7.53825 108.532 8.50093C108.132 9.46361 107.932 10.6151 107.932 11.9555C107.932 13.3328 108.121 14.5066 108.499 15.4767C108.876 16.4393 109.439 17.1799 110.187 17.6982C110.935 18.2092 111.846 18.4647 112.92 18.4647C113.868 18.4647 114.667 18.3203 115.319 18.0315C115.971 17.7427 116.459 17.3354 116.785 16.8096C117.111 16.2764 117.274 15.647 117.274 14.9213L118.329 15.0323H113.042V10.7447H123.05V13.8549C123.05 15.8765 122.617 17.6279 121.75 19.1089C120.891 20.59 119.692 21.723 118.151 22.5079C116.619 23.2929 114.86 23.6853 112.875 23.6853C110.683 23.6853 108.751 23.2114 107.077 22.2635C105.403 21.3157 104.1 19.9679 103.167 18.2203C102.241 16.4653 101.779 14.4066 101.779 12.0443C101.779 9.61542 102.267 7.51604 103.245 5.74619C104.222 3.97634 105.544 2.62859 107.21 1.70293C108.884 0.77728 110.754 0.314453 112.82 0.314453C114.582 0.314453 116.189 0.647689 117.641 1.31416C119.099 1.97322 120.28 2.89517 121.184 4.08001C122.087 5.26485 122.621 6.6089 122.783 8.11216H116.73Z" fill="black"/>
<g clip-path="url(#clip0_4004_311)">
<path d="M155.553 11.6854C155.553 14.1366 155.072 16.2397 154.109 17.9947C153.146 19.7497 151.832 21.0864 150.166 22.0046C148.499 22.9155 146.626 23.3709 144.545 23.3709C142.449 23.3709 140.568 22.9155 138.902 22.0046C137.244 21.0864 135.933 19.7497 134.97 17.9947C134.015 16.2323 133.537 14.1292 133.537 11.6854C133.537 9.23432 134.015 7.12753 134.97 5.36509C135.933 3.60264 137.244 2.2697 138.902 1.36627C140.568 0.455422 142.449 0 144.545 0C146.626 0 148.499 0.455422 150.166 1.36627C151.832 2.2697 153.146 3.60264 154.109 5.36509C155.072 7.12753 155.553 9.23432 155.553 11.6854Z" fill="black"/>
<path d="M146.551 5.70489V14.5323C146.551 15.3753 146.359 16.0664 145.977 16.6057C145.6 17.145 145.176 17.4146 144.705 17.4146C144.663 17.4146 144.624 17.3989 144.587 17.3675C144.556 17.3361 144.54 17.2942 144.54 17.2418C144.54 17.2104 144.585 17.1188 144.674 16.967C144.872 16.6266 144.972 16.1711 144.972 15.6004V6.53737C144.972 6.31747 145.024 6.14208 145.129 6.01118C145.265 5.84888 145.451 5.70228 145.687 5.57138C145.927 5.43525 146.124 5.36719 146.276 5.36719C146.459 5.36719 146.551 5.47976 146.551 5.70489ZM143.009 17.6424C142.584 17.6424 142.226 17.4774 141.933 17.1476C141.844 17.0429 141.799 16.9146 141.799 16.7628C141.799 16.59 141.891 16.3936 142.074 16.1737C142.257 15.9538 142.438 15.8439 142.616 15.8439C142.7 15.8439 142.765 15.8622 142.812 15.8989C142.859 15.9355 142.943 16.0193 143.064 16.1502C143.184 16.2863 143.317 16.3544 143.464 16.3544C143.579 16.3544 143.713 16.3203 143.865 16.2523C144.016 16.1842 144.121 16.1502 144.179 16.1502C144.31 16.1502 144.375 16.2261 144.375 16.3779C144.375 16.4565 144.346 16.5612 144.289 16.6921C144.236 16.823 144.158 16.9617 144.053 17.1083C143.948 17.2549 143.802 17.3806 143.613 17.4853C143.43 17.59 143.228 17.6424 143.009 17.6424Z" fill="white"/>
</g>
<defs>
<clipPath id="clip0_4004_311">
<rect width="23" height="24" fill="white" transform="translate(133.05)"/>
</clipPath>
</defs>
</svg>
