<svg width="32" height="36" viewBox="0 0 32 36" fill="none" xmlns="http://www.w3.org/2000/svg">
<path d="M16.1572 0.5C14.9052 0.5 13.8937 1.47754 13.8937 2.6875V4C8.73016 5.01172 4.83982 9.42773 4.83982 14.7188V16.4551C4.83982 19.5586 3.74345 22.5732 1.74169 24.9932L0.687759 26.2715C0.277505 26.7637 0.199698 27.4404 0.482632 28.0078C0.765566 28.5752 1.35973 28.9375 2.01048 28.9375H30.3039C30.9546 28.9375 31.5488 28.5752 31.8317 28.0078C32.1147 27.4404 32.0369 26.7637 31.6266 26.2715L30.5727 25C28.5709 22.5732 27.4745 19.5586 27.4745 16.4551V14.7188C27.4745 9.42773 23.5842 5.01172 18.4207 4V2.6875C18.4207 1.47754 17.4092 0.5 16.1572 0.5ZM20.6841 31.125H16.1572H11.6302C11.6302 32.2871 12.1042 33.4014 12.953 34.2217C13.8018 35.042 14.9547 35.5 16.1572 35.5C17.3597 35.5 18.5126 35.042 19.3614 34.2217C20.2102 33.4014 20.6841 32.2871 20.6841 31.125Z" fill="#404040"/>
</svg>
