<svg width="65" height="87" viewBox="0 0 65 87" fill="none" xmlns="http://www.w3.org/2000/svg">
<g clip-path="url(#clip0_2041_724)">
<path d="M54.1667 78.8438C55.6562 78.8438 56.875 77.6203 56.875 76.125V27.1875H43.3333C40.3372 27.1875 37.9167 24.7576 37.9167 21.75V8.15625H10.8333C9.34375 8.15625 8.125 9.37969 8.125 10.875V76.125C8.125 77.6203 9.34375 78.8438 10.8333 78.8438H54.1667ZM0 10.875C0 4.87676 4.85807 0 10.8333 0H38.8477C41.7253 0 44.4844 1.13848 46.5156 3.17754L61.8346 18.5555C63.8659 20.5945 65 23.3643 65 26.2529V76.125C65 82.1232 60.1419 87 54.1667 87H10.8333C4.85807 87 0 82.1232 0 76.125V10.875Z" fill="#404040"/>
<path d="M18 47.68C18 46.6133 18.2 45.56 18.6 44.52C19 43.48 19.5733 42.56 20.32 41.76C21.0933 40.9333 22 40.2667 23.04 39.76C24.1067 39.2533 25.3067 39 26.64 39H38.88C40.1867 39 41.3733 39.2533 42.44 39.76C43.5067 40.2667 44.4133 40.9333 45.16 41.76C45.9333 42.56 46.52 43.48 46.92 44.52C47.32 45.56 47.52 46.6133 47.52 47.68V51C47.52 52.0933 47.3467 53.1333 47 54.12C46.6533 55.08 46.12 55.9467 45.4 56.72C44.7067 57.4667 43.8267 58.0667 42.76 58.52C41.72 58.9733 40.4933 59.2 39.08 59.2H26.48C25.0667 59.2 23.8267 58.9733 22.76 58.52C21.72 58.0667 20.84 57.4667 20.12 56.72C19.4267 55.9467 18.8933 55.08 18.52 54.12C18.1733 53.1333 18 52.0933 18 51V47.68ZM24.48 50C24.48 50.9867 24.7467 51.8267 25.28 52.52C25.84 53.2133 26.6933 53.5867 27.84 53.64H37.68C38.8267 53.5867 39.6667 53.2133 40.2 52.52C40.76 51.8267 41.04 50.9867 41.04 50V48.2C41.04 47.1867 40.76 46.3333 40.2 45.64C39.6667 44.92 38.7867 44.56 37.56 44.56H27.96C26.7333 44.56 25.84 44.92 25.28 45.64C24.7467 46.3333 24.48 47.1867 24.48 48.2V50Z" fill="#404040"/>
</g>
<defs>
<clipPath id="clip0_2041_724">
<rect width="65" height="87" fill="white"/>
</clipPath>
</defs>
</svg>
