<svg width="21" height="25" viewBox="0 0 21 25" fill="none" xmlns="http://www.w3.org/2000/svg">
<path d="M20.475 11C20.475 13.2267 20.0377 15.1372 19.1632 16.7316C18.2886 18.3259 17.0946 19.5402 15.5809 20.3744C14.0673 21.2018 12.3653 21.6155 10.475 21.6155C8.57117 21.6155 6.86246 21.2018 5.34884 20.3744C3.84195 19.5402 2.65123 18.3259 1.77669 16.7316C0.908881 15.1305 0.474976 13.22 0.474976 11C0.474976 8.77329 0.908881 6.8594 1.77669 5.25833C2.65123 3.65725 3.84195 2.44635 5.34884 1.62563C6.86246 0.798184 8.57117 0.38446 10.475 0.38446C12.3653 0.38446 14.0673 0.798184 15.5809 1.62563C17.0946 2.44635 18.2886 3.65725 19.1632 5.25833C20.0377 6.8594 20.475 8.77329 20.475 11Z" fill="white"/>
<g filter="url(#filter0_d_2252_330)">
<path d="M12.2969 5.56704V13.5862C12.2969 14.352 12.1233 14.9799 11.7761 15.4698C11.4336 15.9597 11.0484 16.2046 10.6203 16.2046C10.5823 16.2046 10.5466 16.1903 10.5133 16.1618C10.4847 16.1333 10.4705 16.0952 10.4705 16.0477C10.4705 16.0191 10.5109 15.9359 10.5918 15.7979C10.7725 15.4888 10.8629 15.075 10.8629 14.5565V6.3233C10.8629 6.12353 10.9104 5.96419 11.0056 5.84528C11.1292 5.69784 11.2981 5.56466 11.5121 5.44575C11.7309 5.32209 11.9093 5.26025 12.0472 5.26025C12.2137 5.26025 12.2969 5.36252 12.2969 5.56704ZM9.07925 16.4115C8.69398 16.4115 8.36817 16.2617 8.10182 15.962C8.02096 15.8669 7.98053 15.7504 7.98053 15.6124C7.98053 15.4555 8.06377 15.2771 8.23024 15.0774C8.39671 14.8776 8.5608 14.7777 8.72252 14.7777C8.79862 14.7777 8.85808 14.7944 8.90088 14.8276C8.94369 14.8609 9.01979 14.937 9.12919 15.056C9.23858 15.1796 9.35987 15.2415 9.49305 15.2415C9.59769 15.2415 9.71898 15.2105 9.85691 15.1487C9.99484 15.0869 10.09 15.056 10.1423 15.056C10.2612 15.056 10.3207 15.1249 10.3207 15.2629C10.3207 15.3342 10.2945 15.4293 10.2422 15.5482C10.1946 15.6671 10.1233 15.7932 10.0281 15.9264C9.93301 16.0595 9.79983 16.1737 9.6286 16.2688C9.46213 16.3639 9.27901 16.4115 9.07925 16.4115Z" fill="#1E1E1E"/>
</g>
<defs>
<filter id="filter0_d_2252_330" x="3.98053" y="5.26025" width="12.3164" height="19.1512" filterUnits="userSpaceOnUse" color-interpolation-filters="sRGB">
<feFlood flood-opacity="0" result="BackgroundImageFix"/>
<feColorMatrix in="SourceAlpha" type="matrix" values="0 0 0 0 0 0 0 0 0 0 0 0 0 0 0 0 0 0 127 0" result="hardAlpha"/>
<feOffset dy="4"/>
<feGaussianBlur stdDeviation="2"/>
<feComposite in2="hardAlpha" operator="out"/>
<feColorMatrix type="matrix" values="0 0 0 0 0 0 0 0 0 0 0 0 0 0 0 0 0 0 0.25 0"/>
<feBlend mode="normal" in2="BackgroundImageFix" result="effect1_dropShadow_2252_330"/>
<feBlend mode="normal" in="SourceGraphic" in2="effect1_dropShadow_2252_330" result="shape"/>
</filter>
</defs>
</svg>
