<svg width="124" height="24" viewBox="0 0 124 24" fill="none" xmlns="http://www.w3.org/2000/svg">
<path d="M16.8369 0.625595V16.2543C16.8295 17.7132 16.4667 19.0054 15.7484 20.131C15.0301 21.2491 14.0267 22.123 12.7381 22.7524C11.4496 23.3744 9.9834 23.6855 8.33944 23.6855C6.83618 23.6855 5.49213 23.4263 4.3073 22.9079C3.12246 22.3821 2.1857 21.575 1.49701 20.4864C0.808329 19.3904 0.467689 18.0168 0.475094 16.3654H6.45111C6.47333 16.9356 6.5733 17.4206 6.75102 17.8205C6.93615 18.213 7.19163 18.5129 7.51746 18.7203C7.8507 18.9202 8.25058 19.0202 8.71711 19.0202C9.19104 19.0202 9.59463 18.9165 9.92786 18.7092C10.2611 18.5018 10.5092 18.1945 10.6721 17.7872C10.8424 17.3725 10.9313 16.8616 10.9387 16.2543V0.625595H16.8369Z" fill="white"/>
<path d="M40.7975 12C40.7975 14.4512 40.3162 16.5542 39.3535 18.3093C38.3908 20.0643 37.0764 21.401 35.4102 22.3192C33.7441 23.23 31.8705 23.6855 29.7897 23.6855C27.694 23.6855 25.8131 23.23 24.1469 22.3192C22.4881 21.401 21.1774 20.0643 20.2147 18.3093C19.2594 16.5468 18.7818 14.4437 18.7818 12C18.7818 9.54889 19.2594 7.44211 20.2147 5.67966C21.1774 3.91722 22.4881 2.58428 24.1469 1.68084C25.8131 0.769997 27.694 0.314575 29.7897 0.314575C31.8705 0.314575 33.7441 0.769997 35.4102 1.68084C37.0764 2.58428 38.3908 3.91722 39.3535 5.67966C40.3162 7.44211 40.7975 9.54889 40.7975 12ZM34.6438 12C34.6438 10.6078 34.4587 9.43041 34.0884 8.46773C33.7181 7.49764 33.1701 6.76823 32.4444 6.27948C31.7187 5.78333 30.8338 5.53526 29.7897 5.53526C28.7455 5.53526 27.8643 5.78333 27.146 6.27948C26.4277 6.76823 25.8797 7.49764 25.502 8.46773C25.1244 9.43041 24.9355 10.6078 24.9355 12C24.9355 13.3922 25.1244 14.5696 25.502 15.5323C25.8797 16.4876 26.4277 17.217 27.146 17.7206C27.8643 18.2167 28.7455 18.4648 29.7897 18.4648C30.8338 18.4648 31.7187 18.2167 32.4444 17.7206C33.1701 17.217 33.7181 16.4876 34.0884 15.5323C34.4587 14.5696 34.6438 13.3922 34.6438 12Z" fill="white"/>
<path d="M42.736 0.625595H52.4998C54.1955 0.625595 55.6322 0.85886 56.8096 1.32539C57.9944 1.78451 58.8868 2.44358 59.4866 3.30258C60.0938 4.16159 60.3974 5.1724 60.3974 6.33502C60.3974 7.17181 60.216 7.93455 59.8531 8.62324C59.4977 9.30452 58.9867 9.87842 58.3203 10.345C57.6612 10.8115 56.8985 11.1299 56.032 11.3002V11.5224C57.0021 11.5594 57.8871 11.8075 58.6868 12.2666C59.4866 12.7183 60.1197 13.3515 60.5863 14.166C61.0528 14.9732 61.2861 15.9026 61.2861 16.9541C61.2861 18.1982 60.9676 19.3053 60.3308 20.2754C59.6939 21.2454 58.7683 22.0045 57.5538 22.5525C56.3468 23.1005 54.9324 23.3744 53.3106 23.3744H42.736V0.625595ZM51.7555 18.5759C52.4738 18.5759 53.07 18.4833 53.5439 18.2982C54.0252 18.113 54.3807 17.8464 54.6102 17.4984C54.8472 17.1504 54.9657 16.7171 54.9657 16.1988C54.9657 15.6582 54.8435 15.1954 54.5991 14.8103C54.3548 14.4178 53.9956 14.1216 53.5217 13.9217C53.0477 13.7143 52.4886 13.6107 51.8444 13.6107H48.7231V18.5759H51.7555ZM51.4001 9.86732C51.9555 9.86732 52.4479 9.77845 52.8774 9.60073C53.3143 9.423 53.6513 9.16382 53.8882 8.82318C54.1326 8.48254 54.2548 8.07155 54.2548 7.59021C54.2548 7.11628 54.1363 6.71269 53.8993 6.37946C53.6624 6.03881 53.3365 5.77963 52.9219 5.60191C52.5072 5.42418 52.0295 5.33532 51.4889 5.33532H48.7231V9.86732H51.4001Z" fill="white"/>
<path d="M62.5986 0.625595H68.5858V18.5425H77.8608V23.3744H62.5986V0.625595Z" fill="white"/>
<path d="M100.448 12C100.448 14.4512 99.967 16.5542 99.0043 18.3093C98.0417 20.0643 96.7272 21.401 95.0611 22.3192C93.3949 23.23 91.5214 23.6855 89.4405 23.6855C87.3448 23.6855 85.4639 23.23 83.7977 22.3192C82.1389 21.401 80.8282 20.0643 79.8655 18.3093C78.9103 16.5468 78.4326 14.4437 78.4326 12C78.4326 9.54889 78.9103 7.44211 79.8655 5.67966C80.8282 3.91722 82.1389 2.58428 83.7977 1.68084C85.4639 0.769997 87.3448 0.314575 89.4405 0.314575C91.5214 0.314575 93.3949 0.769997 95.0611 1.68084C96.7272 2.58428 98.0417 3.91722 99.0043 5.67966C99.967 7.44211 100.448 9.54889 100.448 12ZM94.2946 12C94.2946 10.6078 94.1095 9.43041 93.7392 8.46773C93.369 7.49764 92.821 6.76823 92.0953 6.27948C91.3695 5.78333 90.4846 5.53526 89.4405 5.53526C88.3964 5.53526 87.5151 5.78333 86.7968 6.27948C86.0785 6.76823 85.5305 7.49764 85.1529 8.46773C84.7752 9.43041 84.5864 10.6078 84.5864 12C84.5864 13.3922 84.7752 14.5696 85.1529 15.5323C85.5305 16.4876 86.0785 17.217 86.7968 17.7206C87.5151 18.2167 88.3964 18.4648 89.4405 18.4648C90.4846 18.4648 91.3695 18.2167 92.0953 17.7206C92.821 17.217 93.369 16.4876 93.7392 15.5323C94.1095 14.5696 94.2946 13.3922 94.2946 12Z" fill="white"/>
<path d="M117.205 8.11228C117.071 7.56429 116.834 7.10147 116.494 6.7238C116.153 6.33873 115.724 6.04622 115.205 5.84628C114.687 5.63893 114.094 5.53526 113.428 5.53526C112.376 5.53526 111.477 5.79074 110.729 6.3017C109.981 6.80526 109.407 7.53837 109.007 8.50105C108.607 9.46373 108.407 10.6152 108.407 11.9556C108.407 13.333 108.596 14.5067 108.974 15.4768C109.351 16.4395 109.914 17.18 110.662 17.6983C111.41 18.2093 112.321 18.4648 113.395 18.4648C114.343 18.4648 115.142 18.3204 115.794 18.0316C116.446 17.7428 116.934 17.3355 117.26 16.8097C117.586 16.2765 117.749 15.6471 117.749 14.9214L118.804 15.0325H113.517V10.7448H123.525V13.855C123.525 15.8767 123.092 17.628 122.225 19.109C121.366 20.5901 120.167 21.7231 118.626 22.508C117.094 23.293 115.335 23.6855 113.35 23.6855C111.158 23.6855 109.226 23.2115 107.552 22.2637C105.878 21.3158 104.575 19.968 103.642 18.2204C102.716 16.4654 102.254 14.4067 102.254 12.0445C102.254 9.61554 102.742 7.51616 103.72 5.74631C104.697 3.97646 106.019 2.62871 107.685 1.70306C109.359 0.777402 111.229 0.314575 113.295 0.314575C115.057 0.314575 116.664 0.647811 118.115 1.31428C119.574 1.97335 120.755 2.8953 121.659 4.08013C122.562 5.26497 123.096 6.60902 123.258 8.11228H117.205Z" fill="white"/>
</svg>
