<svg width="576" height="448" viewBox="0 0 576 448" fill="none" xmlns="http://www.w3.org/2000/svg">
<path d="M288 0C207.2 0 142.5 36.8 95.3999 80.6C48.5999 124 17.2999 176 2.4999 211.7C-0.800098 219.6 -0.800098 228.4 2.4999 236.3C17.2999 272 48.5999 324 95.3999 367.4C142.5 411.2 207.2 448 288 448C368.8 448 433.5 411.2 480.6 367.4C527.4 323.9 558.7 272 573.6 236.3C576.9 228.4 576.9 219.6 573.6 211.7C558.7 176 527.4 124 480.6 80.6C433.5 36.8 368.8 0 288 0ZM144 224C144 185.809 159.171 149.182 186.177 122.177C213.182 95.1714 249.809 80 288 80C326.191 80 362.818 95.1714 389.823 122.177C416.829 149.182 432 185.809 432 224C432 262.191 416.829 298.818 389.823 325.823C362.818 352.829 326.191 368 288 368C249.809 368 213.182 352.829 186.177 325.823C159.171 298.818 144 262.191 144 224ZM288 160C288 195.3 259.3 224 224 224C216.9 224 210.1 222.8 203.7 220.7C198.2 218.9 191.8 222.3 192 228.1C192.3 235 193.3 241.9 195.2 248.8C208.9 300 261.6 330.4 312.8 316.7C364 303 394.4 250.3 380.7 199.1C369.6 157.6 332.9 129.7 292.1 128C286.3 127.8 282.9 134.1 284.7 139.7C286.8 146.1 288 152.9 288 160Z" fill="#777777"/>
</svg>
