<svg width="24" height="21" viewBox="0 0 24 21" fill="none" xmlns="http://www.w3.org/2000/svg">
<path d="M1.33514e-05 9.75C1.33514e-05 15.1359 5.37189 19.5 12 19.5C13.7391 19.5 15.3891 19.2 16.8797 18.6609C17.4375 19.0688 18.3469 19.6266 19.425 20.0953C20.55 20.5828 21.9047 21 23.25 21C23.5547 21 23.8266 20.8172 23.9438 20.5359C24.061 20.2547 23.9953 19.9359 23.7844 19.7203L23.7703 19.7062C23.7563 19.6922 23.7375 19.6734 23.7094 19.6406C23.6578 19.5844 23.5781 19.4953 23.4797 19.3734C23.2875 19.1391 23.0297 18.7922 22.7672 18.3609C22.2985 17.5828 21.8531 16.5609 21.7641 15.4125C23.1703 13.8187 24 11.8641 24 9.75C24 4.36406 18.6281 0 12 0C5.37189 0 1.33514e-05 4.36406 1.33514e-05 9.75Z" fill="#301F1F"/>
</svg>
