<svg width="200" height="48" viewBox="0 0 200 48" fill="none" xmlns="http://www.w3.org/2000/svg">
<g filter="url(#filter0_d_2007_1651)">
<path d="M195.102 24.8566C195.102 27.9044 194.504 30.5195 193.307 32.7019C192.11 34.8842 190.475 36.5462 188.403 37.6881C186.331 38.8207 184.002 39.3869 181.414 39.3869C178.808 39.3869 176.47 38.8207 174.398 37.6881C172.335 36.5462 170.705 34.8842 169.508 32.7019C168.32 30.5103 167.727 27.8952 167.727 24.8566C167.727 21.8087 168.32 19.189 169.508 16.9974C170.705 14.8059 172.335 13.1485 174.398 12.0251C176.47 10.8925 178.808 10.3262 181.414 10.3262C184.002 10.3262 186.331 10.8925 188.403 12.0251C190.475 13.1485 192.11 14.8059 193.307 16.9974C194.504 19.189 195.102 21.8087 195.102 24.8566Z" fill="url(#paint0_linear_2007_1651)"/>
</g>
<path d="M183.908 17.4199V28.3965C183.908 29.4447 183.671 30.304 183.195 30.9746C182.727 31.6452 182.199 31.9805 181.613 31.9805C181.561 31.9805 181.512 31.9609 181.467 31.9219C181.428 31.8828 181.408 31.8307 181.408 31.7656C181.408 31.7266 181.464 31.6126 181.574 31.4238C181.822 31.0007 181.945 30.4342 181.945 29.7246V18.4551C181.945 18.1816 182.01 17.9635 182.141 17.8008C182.31 17.599 182.541 17.4167 182.834 17.2539C183.133 17.0846 183.378 17 183.566 17C183.794 17 183.908 17.14 183.908 17.4199ZM179.504 32.2637C178.977 32.2637 178.531 32.0586 178.166 31.6484C178.055 31.5182 178 31.3587 178 31.1699C178 30.9551 178.114 30.7109 178.342 30.4375C178.57 30.1641 178.794 30.0273 179.016 30.0273C179.12 30.0273 179.201 30.0501 179.26 30.0957C179.318 30.1413 179.423 30.2454 179.572 30.4082C179.722 30.5775 179.888 30.6621 180.07 30.6621C180.214 30.6621 180.38 30.6198 180.568 30.5352C180.757 30.4505 180.887 30.4082 180.959 30.4082C181.122 30.4082 181.203 30.5026 181.203 30.6914C181.203 30.7891 181.167 30.9193 181.096 31.082C181.031 31.2448 180.933 31.4173 180.803 31.5996C180.673 31.7819 180.49 31.9382 180.256 32.0684C180.028 32.1986 179.777 32.2637 179.504 32.2637Z" fill="white"/>
<path d="M20.8425 10.7127V30.1464C20.8333 31.9604 20.3821 33.5672 19.489 34.9669C18.5958 36.3573 17.3481 37.4438 15.7459 38.2265C14.1436 39 12.3204 39.3867 10.2762 39.3867C8.407 39.3867 6.73573 39.0645 5.26243 38.4199C3.78913 37.7661 2.62431 36.7624 1.76796 35.4088C0.911602 34.046 0.488029 32.3379 0.497238 30.2845H7.92818C7.9558 30.9936 8.08011 31.5967 8.30111 32.0939C8.53131 32.582 8.84899 32.9549 9.25414 33.2127C9.66851 33.4613 10.1657 33.5856 10.7459 33.5856C11.3352 33.5856 11.837 33.4567 12.2514 33.1989C12.6657 32.9411 12.9742 32.5589 13.1768 32.0525C13.3886 31.5368 13.4991 30.9015 13.5083 30.1464V10.7127H20.8425ZM50.6366 24.8564C50.6366 27.9042 50.0381 30.5193 48.841 32.7017C47.644 34.884 46.0095 36.546 43.9377 37.6878C41.8659 38.8204 39.5362 39.3867 36.9487 39.3867C34.3428 39.3867 32.004 38.8204 29.9322 37.6878C27.8695 36.546 26.2397 34.884 25.0427 32.7017C23.8548 30.5101 23.2609 27.895 23.2609 24.8564C23.2609 21.8085 23.8548 19.1888 25.0427 16.9972C26.2397 14.8057 27.8695 13.1483 29.9322 12.0249C32.004 10.8923 34.3428 10.326 36.9487 10.326C39.5362 10.326 41.8659 10.8923 43.9377 12.0249C46.0095 13.1483 47.644 14.8057 48.841 16.9972C50.0381 19.1888 50.6366 21.8085 50.6366 24.8564ZM42.9847 24.8564C42.9847 23.1252 42.7544 21.6611 42.294 20.4641C41.8336 19.2578 41.1522 18.3508 40.2498 17.7431C39.3475 17.1261 38.2471 16.8177 36.9487 16.8177C35.6504 16.8177 34.5546 17.1261 33.6614 17.7431C32.7683 18.3508 32.0869 19.2578 31.6172 20.4641C31.1476 21.6611 30.9128 23.1252 30.9128 24.8564C30.9128 26.5875 31.1476 28.0516 31.6172 29.2486C32.0869 30.4365 32.7683 31.3435 33.6614 31.9696C34.5546 32.5866 35.6504 32.895 36.9487 32.895C38.2471 32.895 39.3475 32.5866 40.2498 31.9696C41.1522 31.3435 41.8336 30.4365 42.294 29.2486C42.7544 28.0516 42.9847 26.5875 42.9847 24.8564ZM53.047 10.7127H65.1878C67.2965 10.7127 69.0829 11.0028 70.547 11.5829C72.0202 12.1538 73.1298 12.9733 73.8757 14.0414C74.6307 15.1096 75.0083 16.3665 75.0083 17.8122C75.0083 18.8527 74.7827 19.8011 74.3315 20.6575C73.8895 21.5046 73.2541 22.2182 72.4254 22.7983C71.6059 23.3785 70.6574 23.7744 69.5801 23.9862V24.2624C70.7864 24.3085 71.8867 24.6169 72.8812 25.1878C73.8757 25.7495 74.663 26.5368 75.2431 27.5497C75.8232 28.5534 76.1133 29.709 76.1133 31.0166C76.1133 32.5635 75.7173 33.9401 74.9254 35.1464C74.1335 36.3527 72.9825 37.2965 71.4724 37.9779C69.9714 38.6593 68.2127 39 66.1961 39H53.047V10.7127ZM64.2624 33.0331C65.1556 33.0331 65.8969 32.918 66.4862 32.6878C67.0847 32.4576 67.5267 32.1262 67.8121 31.6934C68.1068 31.2606 68.2541 30.7219 68.2541 30.0773C68.2541 29.4052 68.1022 28.8296 67.7983 28.3508C67.4945 27.8628 67.0479 27.4945 66.4586 27.2459C65.8692 26.988 65.174 26.8591 64.3729 26.8591H60.4917V33.0331H64.2624ZM63.8204 22.2044C64.511 22.2044 65.1234 22.0939 65.6574 21.8729C66.2007 21.6519 66.6197 21.3296 66.9144 20.9061C67.2182 20.4825 67.3702 19.9715 67.3702 19.3729C67.3702 18.7836 67.2228 18.2818 66.9282 17.8674C66.6335 17.4438 66.2284 17.1215 65.7127 16.9006C65.197 16.6796 64.6031 16.5691 63.9309 16.5691H60.4917V22.2044H63.8204ZM77.7454 10.7127H85.1901V32.9917H96.7233V39H77.7454V10.7127ZM124.81 24.8564C124.81 27.9042 124.211 30.5193 123.014 32.7017C121.817 34.884 120.183 36.546 118.111 37.6878C116.039 38.8204 113.71 39.3867 111.122 39.3867C108.516 39.3867 106.177 38.8204 104.106 37.6878C102.043 36.546 100.413 34.884 99.2161 32.7017C98.0283 30.5101 97.4343 27.895 97.4343 24.8564C97.4343 21.8085 98.0283 19.1888 99.2161 16.9972C100.413 14.8057 102.043 13.1483 104.106 12.0249C106.177 10.8923 108.516 10.326 111.122 10.326C113.71 10.326 116.039 10.8923 118.111 12.0249C120.183 13.1483 121.817 14.8057 123.014 16.9972C124.211 19.1888 124.81 21.8085 124.81 24.8564ZM117.158 24.8564C117.158 23.1252 116.928 21.6611 116.467 20.4641C116.007 19.2578 115.326 18.3508 114.423 17.7431C113.521 17.1261 112.421 16.8177 111.122 16.8177C109.824 16.8177 108.728 17.1261 107.835 17.7431C106.942 18.3508 106.26 19.2578 105.791 20.4641C105.321 21.6611 105.086 23.1252 105.086 24.8564C105.086 26.5875 105.321 28.0516 105.791 29.2486C106.26 30.4365 106.942 31.3435 107.835 31.9696C108.728 32.5866 109.824 32.895 111.122 32.895C112.421 32.895 113.521 32.5866 114.423 31.9696C115.326 31.3435 116.007 30.4365 116.467 29.2486C116.928 28.0516 117.158 26.5875 117.158 24.8564ZM145.646 20.0221C145.48 19.3407 145.185 18.7652 144.762 18.2956C144.338 17.8168 143.804 17.453 143.16 17.2044C142.515 16.9466 141.778 16.8177 140.95 16.8177C139.642 16.8177 138.523 17.1354 137.593 17.7707C136.663 18.3969 135.95 19.3085 135.452 20.5055C134.955 21.7026 134.707 23.1344 134.707 24.8011C134.707 26.5138 134.941 27.9733 135.411 29.1796C135.881 30.3766 136.58 31.2974 137.51 31.942C138.44 32.5773 139.573 32.895 140.908 32.895C142.087 32.895 143.081 32.7155 143.892 32.3564C144.702 31.9972 145.31 31.4908 145.715 30.837C146.12 30.174 146.323 29.3913 146.323 28.4889L147.635 28.6271H141.06V23.2956H153.505V27.163C153.505 29.6768 152.966 31.8545 151.889 33.6961C150.821 35.5378 149.329 36.9466 147.414 37.9227C145.508 38.8987 143.321 39.3867 140.853 39.3867C138.127 39.3867 135.724 38.7974 133.643 37.6188C131.562 36.4401 129.941 34.7643 128.781 32.5912C127.63 30.4088 127.055 27.849 127.055 24.9116C127.055 21.8913 127.662 19.2808 128.878 17.0801C130.093 14.8794 131.737 13.2035 133.809 12.0525C135.89 10.9015 138.215 10.326 140.784 10.326C142.975 10.326 144.974 10.7403 146.778 11.5691C148.592 12.3886 150.061 13.535 151.184 15.0083C152.308 16.4816 152.971 18.1529 153.173 20.0221H145.646Z" fill="black"/>
<defs>
<filter id="filter0_d_2007_1651" x="163.727" y="10.3262" width="35.3757" height="37.0605" filterUnits="userSpaceOnUse" color-interpolation-filters="sRGB">
<feFlood flood-opacity="0" result="BackgroundImageFix"/>
<feColorMatrix in="SourceAlpha" type="matrix" values="0 0 0 0 0 0 0 0 0 0 0 0 0 0 0 0 0 0 127 0" result="hardAlpha"/>
<feOffset dy="4"/>
<feGaussianBlur stdDeviation="2"/>
<feComposite in2="hardAlpha" operator="out"/>
<feColorMatrix type="matrix" values="0 0 0 0 0 0 0 0 0 0 0 0 0 0 0 0 0 0 0.25 0"/>
<feBlend mode="normal" in2="BackgroundImageFix" result="effect1_dropShadow_2007_1651"/>
<feBlend mode="normal" in="SourceGraphic" in2="effect1_dropShadow_2007_1651" result="shape"/>
</filter>
<linearGradient id="paint0_linear_2007_1651" x1="181.414" y1="10.3262" x2="181.414" y2="39.3869" gradientUnits="userSpaceOnUse">
<stop/>
<stop offset="1" stop-color="#6880FF"/>
</linearGradient>
</defs>
</svg>
