<svg width="300" height="300" viewBox="0 0 300 300" fill="none" xmlns="http://www.w3.org/2000/svg">
<circle cx="150" cy="150" r="149.5" fill="black" fill-opacity="0.2" stroke="#D9D9D9"/>
<g clip-path="url(#clip0_4068_1441)">
<path d="M166.844 131.695C165.133 129.984 162.367 129.984 160.656 131.695L158.305 134.039L165.953 141.688L168.305 139.336C170.016 137.625 170.016 134.859 168.305 133.148L166.844 131.695ZM143.469 148.883C142.992 149.359 142.625 149.945 142.414 150.594L140.102 157.531C139.875 158.203 140.055 158.945 140.555 159.453C141.055 159.961 141.797 160.133 142.477 159.906L149.414 157.594C150.055 157.383 150.641 157.016 151.125 156.539L164.195 143.461L156.539 135.805L143.469 148.883ZM137.5 135C133.359 135 130 138.359 130 142.5V162.5C130 166.641 133.359 170 137.5 170H157.5C161.641 170 165 166.641 165 162.5V155C165 153.617 163.883 152.5 162.5 152.5C161.117 152.5 160 153.617 160 155V162.5C160 163.883 158.883 165 157.5 165H137.5C136.117 165 135 163.883 135 162.5V142.5C135 141.117 136.117 140 137.5 140H145C146.383 140 147.5 138.883 147.5 137.5C147.5 136.117 146.383 135 145 135H137.5Z" fill="white"/>
</g>
<defs>
<clipPath id="clip0_4068_1441">
<rect width="40" height="40" fill="white" transform="translate(130 130)"/>
</clipPath>
</defs>
</svg>
